<svg version="1.1" id="Layer_1" xmlns="http://www.w3.org/2000/svg" xmlns:xlink="http://www.w3.org/1999/xlink" x="0px" y="0px" viewBox="0 0 165 165" style="enable-background:new 0 0 165 165;" xml:space="preserve">
 <style type="text/css">
  .st0{fill:#FFFFFF;}
	.st1{fill-rule:evenodd;clip-rule:evenodd;fill:#FFFFFF;}
 </style>
 <g>
  <g>
   <path class="st0" d="M77.5,24.6h9.6c1.1,0,1.9-0.9,1.9-1.9c0-1.1-0.9-1.9-1.9-1.9h-9.6V24.6z M77.5,33.9h9.9c1.2,0,2.2-1,2.2-2.2
			c0-1.2-1-2.2-2.2-2.2h-9.9V33.9z M93,26.8c1.3,1.3,2.1,3,2.1,5c0,3.9-3.1,7-7,7h-16v-23h15.8c3.7,0,6.7,3,6.7,6.7
			C94.5,24.2,93.9,25.7,93,26.8">
   </path>
   <path class="st0" d="M96.7,66.3h-5.9l-1.9-3.8H76l-1.9,3.8h-5.9l11.5-23h5.3L96.7,66.3z M82.5,49.2l-4,8.4h8.1L82.5,49.2z">
   </path>
   <polygon class="st0" points="90.3,71.2 96.9,71.2 85.2,86.2 85.2,94.3 79.7,94.3 79.7,86.2 68.1,71.2 74.7,71.2 82.5,81.7 		">
   </polygon>
   <polygon class="st0" points="121,71.2 121,76.2 105.6,76.2 105.6,80 120.5,80 120.5,84.9 105.6,84.9 105.6,89.3 121,89.3 
			121,94.3 100.2,94.3 100.2,71.2 		">
   </polygon>
   <path class="st0" d="M138.3,85.5h-4.1v8.8h-5.5v-23h14c3.9,0,7.1,3.2,7.1,7.1c0,3.2-2.1,6-5.1,6.8l6.8,9.1h-6.6L138.3,85.5z
			 M142.1,76.2h-8v4.4h8c1.2,0,2.2-1,2.2-2.2C144.3,77.2,143.3,76.2,142.1,76.2">
   </path>
   <path class="st0" d="M70.6,94.3h-5.9l-1.9-3.8H50l-1.9,3.8h-5.9l11.5-23h5.3L70.6,94.3z M56.4,77.1l-4,8.4h8.1L56.4,77.1z">
   </path>
   <path class="st0" d="M21.6,80h9.6c1.1,0,1.9-0.9,1.9-1.9c0-1.1-0.9-1.9-1.9-1.9l-9.6,0V80z M21.6,89.3h9.9c1.2,0,2.2-1,2.2-2.2
			c0-1.2-1-2.2-2.2-2.2h-9.9V89.3z M37.1,82.3c1.3,1.3,2.1,3,2.1,5c0,3.9-3.1,7-7,7h-16v-23l15.8,0c3.7,0,6.7,3,6.7,6.7
			C38.6,79.6,38,81.1,37.1,82.3">
   </path>
   <polygon class="st0" points="92.9,99.2 92.9,104.1 77.5,104.1 77.5,108 92.3,108 92.3,112.9 77.5,112.9 77.5,117.3 92.9,117.3 
			92.9,122.2 72.1,122.2 72.1,99.2 		">
   </polygon>
   <path class="st0" d="M89,134.9c0-1.2-1-2.2-2.2-2.2h-9.3v4.4h9.3C88.1,137,89,136.1,89,134.9 M72.1,150.8v-23h15.4
			c3.9,0,7.1,3.2,7.1,7.1c0,3-1.8,5.5-4.4,6.6l6.9,9.3h-6.6l-6.6-8.8h-6.3v8.8H72.1z">
   </path>
   <path class="st1" d="M7.6,82.5c0-41.3,33.5-74.9,74.9-74.9c41.3,0,74.9,33.5,74.9,74.9c0,41.3-33.5,74.9-74.9,74.9
			C41.2,157.4,7.6,123.9,7.6,82.5 M165,82.5c0,45.6-36.9,82.5-82.5,82.5C36.9,165,0,128.1,0,82.5C0,36.9,36.9,0,82.5,0
			C128.1,0,165,36.9,165,82.5">
   </path>
  </g>
 </g>
</svg>