<svg width="206" height="42" viewBox="0 0 206 42" fill="none" xmlns="http://www.w3.org/2000/svg">
<path d="M191.487 4.02148H195.888L204.128 39.23H198.838L197.292 31.6789H190.082L188.537 39.23H183.247L191.487 4.02148ZM193.734 14.164H193.641L191.019 26.8981H196.309L193.734 14.164Z" fill="black"/>
<path d="M172.154 8.75765H166.068V4.02148H183.578V8.75765H177.445V39.23H172.154V8.75765Z" fill="black"/>
<path d="M153.703 4.02148H158.104L166.344 39.23H161.053L159.508 31.6789H152.298L150.753 39.23H145.463L153.703 4.02148ZM155.95 14.164H155.857L153.282 26.9428H158.572L155.95 14.164Z" fill="black"/>
<path d="M125.005 4.02148H133.526C139.8 4.02148 142.843 7.55127 142.843 14.3428C142.843 18.4087 141.673 21.3577 138.302 23.1449L144.014 39.23H138.395L133.433 24.1725H130.249V39.1853H125.005V4.02148ZM130.296 19.7491H133.292C136.991 19.7491 137.553 17.7832 137.553 14.2534C137.553 10.6789 136.944 8.75765 133.058 8.75765H130.296V19.7491Z" fill="black"/>
<path d="M26.0754 4.02148H41.8534V8.75765H31.366V19.0789H40.4956V23.8151H31.366V34.1811H41.8534V39.23H26.0754V4.02148Z" fill="black"/>
<path d="M3.69617 4.02148H11.5149C17.4609 4.02148 20.785 7.41723 20.785 13.1364V29.6236C20.785 36.147 17.2736 39.2747 11.0467 39.2747H3.69617V4.02148ZM8.93987 34.4491H11.3745C14.324 34.4491 15.4477 33.064 15.4477 30.0704V13.0917C15.4477 10.3215 14.4645 8.75765 11.3745 8.75765H8.93987V34.4491Z" fill="black"/>
<path d="M74.4425 4.02148H69.152V39.23H74.4425V4.02148Z" fill="black"/>
<path d="M63.8124 14.1638H58.5218V13.0468C58.5218 10.7234 57.4918 8.80211 54.7763 8.80211C51.8736 8.80211 51.2181 11.0362 51.2181 13.3596C51.2181 16.0851 51.499 17.0234 54.2145 18.0511L58.2409 19.5702C62.9228 21.2681 63.7655 24.083 63.7655 29.2213C63.7655 35.1638 61.4714 39.5425 54.6359 39.5425C49.4858 39.5425 45.5999 35.9234 45.5999 31.1872V29.3106H50.8904V30.8745C50.8904 32.7064 51.9204 34.4936 54.6359 34.4936C58.1941 34.4936 58.475 32.483 58.475 29.2659C58.475 25.5128 58.0068 24.9319 55.4318 23.9042L51.6395 22.4298C47.0981 20.6425 45.8808 17.783 45.8808 13.3596C45.8808 7.99786 48.8772 3.7085 54.9636 3.7085C60.2541 3.7085 63.7655 7.77445 63.7655 11.6617V14.1638H63.8124Z" fill="black"/>
<path d="M103.7 4.02148H119.431V8.75765H108.991V19.0789H118.074V23.8151H108.991V34.1811H119.431V39.23H103.7V4.02148Z" fill="black"/>
<path d="M81.278 4.02148H89.0967C95.0427 4.02148 98.3668 7.41723 98.3668 13.1364V29.6236C98.3668 36.147 94.8554 39.2747 88.6285 39.2747H81.278V4.02148ZM86.5685 34.4491H89.0031C91.9526 34.4491 93.0763 33.064 93.0763 30.0704V13.0917C93.0763 10.3215 92.0931 8.75765 89.0031 8.75765H86.5685V34.4491Z" fill="black"/>
</svg>
